<?xml version="1.0" standalone="no"?><!DOCTYPE svg PUBLIC "-//W3C//DTD SVG 1.1//EN" "http://www.w3.org/Graphics/SVG/1.1/DTD/svg11.dtd"><svg t="1746385915982" class="icon" viewBox="0 0 1024 1024" version="1.1" xmlns="http://www.w3.org/2000/svg" p-id="4860" xmlns:xlink="http://www.w3.org/1999/xlink" width="200" height="200"><path d="M512 512m-512 0a512 512 0 1 0 1024 0 512 512 0 1 0-1024 0Z" fill="#4D6BFE" p-id="4861"></path><path d="M873.898667 322.026667c-7.125333-3.477333-10.197333 3.157333-14.378667 6.528-1.429333 1.130667-2.645333 2.56-3.84 3.84-10.410667 11.178667-22.570667 18.453333-38.464 17.578666-23.253333-1.28-43.093333 6.016-60.608 23.850667-3.776-21.973333-16.149333-35.072-34.986667-43.498667-9.877333-4.373333-19.84-8.746667-26.730666-18.261333-4.842667-6.741333-6.144-14.293333-8.597334-21.674667-1.514667-4.48-3.050667-9.066667-8.213333-9.856-5.568-0.853333-7.765333 3.84-9.962667 7.744-8.789333 16.064-12.181333 33.749333-11.861333 51.690667 0.789333 40.256 17.770667 72.341333 51.541333 95.168 3.84 2.645333 4.821333 5.269333 3.626667 9.109333-2.282667 7.829333-5.034667 15.488-7.466667 23.338667-1.536 5.034667-3.84 6.144-9.173333 3.968a154.325333 154.325333 0 0 1-48.704-33.130667c-24.021333-23.210667-45.717333-48.874667-72.810667-68.970666a328.106667 328.106667 0 0 0-19.285333-13.226667c-27.648-26.901333 3.626667-48.981333 10.858667-51.541333 7.552-2.730667 2.624-12.138667-21.824-12.010667-24.448 0.106667-46.826667 8.298667-75.306667 19.157333a78.805333 78.805333 0 0 1-13.034667 3.84 270.634667 270.634667 0 0 0-80.810666-2.837333c-52.864 5.952-95.061333 30.933333-126.122667 73.642667-37.248 51.285333-46.016 109.632-35.285333 170.453333 11.306667 64.064 43.946667 117.184 94.208 158.677333 52.053333 43.008 112.042667 64.064 180.437333 60.053334 41.536-2.410667 87.808-8 139.989333-52.181334 13.184 6.506667 26.965333 9.130667 49.92 11.093334 17.642667 1.685333 34.645333-0.853333 47.786667-3.584 20.608-4.373333 19.178667-23.466667 11.733333-26.986667-60.394667-28.16-47.168-16.725333-59.221333-25.962667 30.72-36.394667 76.970667-74.176 95.082667-196.586666 1.408-9.706667 0.192-15.786667 0-23.701334-0.128-4.757333 0.96-6.656 6.421333-7.189333a115.690667 115.690667 0 0 0 43.349333-13.312c39.146667-21.461333 54.890667-56.576 58.624-98.730667 0.576-6.421333-0.106667-13.12-6.890666-16.490666zM532.821333 701.354667c-58.538667-46.08-86.954667-61.226667-98.645333-60.565334-10.965333 0.597333-9.024 13.184-6.613333 21.354667 2.517333 8.085333 5.802667 13.653333 10.432 20.736 3.2 4.693333 5.376 11.733333-3.178667 16.938667-18.858667 11.733333-51.626667-3.925333-53.184-4.693334-38.165333-22.464-70.058667-52.181333-92.544-92.8-21.674667-39.082667-34.282667-81.045333-36.373333-125.802666-0.576-10.837333 2.624-14.677333 13.354666-16.597334a132.906667 132.906667 0 0 1 42.88-1.130666c59.754667 8.789333 110.634667 35.541333 153.258667 77.866666 24.362667 24.170667 42.773333 53.013333 61.76 81.152 20.138667 29.952 41.856 58.453333 69.504 81.792 9.728 8.170667 17.536 14.442667 24.96 19.029334-22.464 2.496-59.968 3.029333-85.610667-17.28z m28.053334-180.714667a8.618667 8.618667 0 1 1 8.576 8.597333 8.490667 8.490667 0 0 1-8.576-8.64v0.042667z m87.168 44.8c-5.589333 2.261333-11.178667 4.266667-16.554667 4.48a35.285333 35.285333 0 0 1-22.378667-7.146667c-7.637333-6.421333-13.12-10.026667-15.466666-21.290666a49.621333 49.621333 0 0 1 0.448-16.490667c1.984-9.194667-0.213333-15.04-6.656-20.394667-5.290667-4.394667-11.946667-5.546667-19.306667-5.546666a15.616 15.616 0 0 1-7.146667-2.218667c-3.050667-1.557333-5.568-5.376-3.178666-10.069333a33.066667 33.066667 0 0 1 5.397333-5.866667c9.962667-5.696 21.461333-3.84 32.106667 0.448 9.898667 4.032 17.322667 11.434667 28.053333 21.888 10.986667 12.672 12.949333 16.213333 19.2 25.664 4.928 7.466667 9.429333 15.146667 12.501333 23.850667 1.856 5.44-0.576 9.92-7.04 12.693333z" fill="#FFFFFF" p-id="4862"></path></svg>