<?xml version="1.0" standalone="no"?><!DOCTYPE svg PUBLIC "-//W3C//DTD SVG 1.1//EN" "http://www.w3.org/Graphics/SVG/1.1/DTD/svg11.dtd"><svg t="1746327830692" class="icon" viewBox="0 0 1024 1024" version="1.1" xmlns="http://www.w3.org/2000/svg" p-id="6209" xmlns:xlink="http://www.w3.org/1999/xlink" width="200" height="200"><path d="M512 0c283.213 0 512 228.813 512 512 0 283.213-228.813 512-512 512C228.787 1024 0 795.187 0 512 0 228.787 228.813 0 512 0z m107.443 436.582c-28.262 1.946-25.497-12.697-8.755-33.97 38.195-49.409 109.005-116.609 112.205-165.633 4.326-63.667-61.696-83.379-129.741-83.379-47.36 1.152-96.307 13.9-129.715 25.472-114.995 39.347-187.034 101.146-232.807 170.65-47.36 68.736-32.64 134.732 69.632 136.678 77.21-3.072 129.332-23.936 181.863-50.176 0.41 0-146.048 40.525-200.192 10.803-5.94-3.097-11.904-7.347-13.517-19.302 0-24.32 41.395-49.792 65.664-57.907V328.14a170.573 170.573 0 0 0 156.006-23.552 37.197 37.197 0 0 1 2.79 15.437h8.346a30.131 30.131 0 0 0-28.646-33.972c5.58 4.25 9.549 7.732 11.52 10.83l-0.768 0.767-0.41 0.359c-63.667 43.264-125.337 23.193-131.328 22.016l35.43-33.562-9.958-24.32c70.452-24.013 128.512-41.344 225.255-57.958l-21.504-16.999 11.136-6.579c57.344 15.462 95.923 27.034 93.952 56.397a58.51 58.51 0 0 1-5.99 16.998c-17.127 32.794-67.252 85.709-87.553 108.467-13.132 15.053-26.24 28.954-35.404 42.855-10.343 14.285-15.514 27.392-15.924 39.373 1.997 96.921 296.884-45.568 354.97-82.996-84.762 35.124-176.717 68.71-276.557 74.88z m64.435-222.77a34.811 34.811 0 0 1 2.816 19.302c0.768-7.706 0-14.285-2.816-19.303zM289.792 636.415c-6.144 6.4-13.824 12.288-23.04 17.92-9.216 5.12-17.92 8.704-26.112 10.752v29.696c16.896-4.864 30.72-12.288 41.728-22.272V819.2h29.952V636.416h-22.528z m118.758-3.584c-21.248 0-38.144 9.216-50.432 27.648-12.544 18.432-18.688 42.496-18.688 72.448 0 27.904 5.632 49.664 17.408 65.536 11.776 16.128 28.928 24.32 51.456 24.32 18.176 0 33.536-6.144 45.824-17.92 12.288-11.776 18.688-26.88 18.688-45.312 0-17.92-5.376-32.768-16.128-44.288-10.752-11.52-25.088-17.152-43.008-17.152-9.216 0-17.408 1.536-24.576 5.12-7.68 3.584-14.08 8.96-19.2 16.64h-1.28v-2.304c0-16.896 3.328-30.976 10.496-42.24 7.168-12.032 16.896-17.92 29.184-17.92 17.408 0 28.16 8.448 31.744 25.344h29.184c-4.608-33.28-24.832-49.92-60.672-49.92z m-1.28 89.6c11.008 0 19.712 3.328 26.368 10.24 6.144 6.656 9.472 15.616 9.472 26.88s-3.328 20.48-9.984 27.648-15.104 10.752-25.856 10.752c-10.496 0-18.944-3.328-25.6-9.984s-9.984-15.872-9.984-27.392c0-11.776 3.072-21.248 9.472-27.904 6.144-6.912 14.848-10.24 26.112-10.24z m146.15-89.6c-19.711 0-35.327 5.12-46.847 15.616-10.496 9.216-15.616 20.736-15.616 34.56 0 9.216 2.048 17.152 6.144 23.552 4.352 6.656 11.008 12.032 20.224 15.616v0.512c-8.704 2.304-15.872 7.424-22.016 15.36-7.168 8.704-10.496 18.688-10.496 29.952 0 16.384 5.888 29.44 17.92 39.68 11.776 9.984 28.672 15.104 50.688 15.104 21.76 0 38.656-5.12 50.688-15.104 11.776-10.24 17.92-23.296 17.92-39.68 0-11.264-3.584-21.248-10.496-29.952-6.144-7.936-13.568-13.056-22.016-15.36v-0.512c8.96-3.584 15.616-8.96 20.224-15.616 4.096-6.4 6.144-14.336 6.144-23.552 0-13.824-5.376-25.344-15.616-34.56-11.776-10.496-27.392-15.616-46.848-15.616z m0 23.808c10.753 0 19.2 2.816 25.857 8.704 5.632 5.12 8.448 11.264 8.448 18.688 0 8.448-2.304 15.104-6.912 19.968-5.632 5.888-14.848 8.96-27.392 8.96-12.8 0-21.76-3.072-27.392-8.96-4.608-4.864-6.912-11.52-6.912-19.968 0-7.424 2.816-13.568 8.448-18.688 6.4-5.888 15.104-8.704 25.856-8.704z m0 78.592c12.8 0 22.529 3.072 29.44 9.472 6.145 5.632 9.473 13.568 9.473 23.296 0 9.216-3.328 16.384-9.728 22.016-7.168 5.632-16.896 8.704-29.184 8.704-12.544 0-22.016-2.816-28.672-8.448-6.912-5.632-10.24-13.056-10.24-22.272 0-9.728 3.072-17.664 9.728-23.552 6.656-6.144 16.384-9.216 29.184-9.216z m147.406-102.4c-19.712 0-35.328 5.12-46.848 15.616-10.496 9.216-15.616 20.736-15.616 34.56 0 9.216 2.048 17.152 6.144 23.552 4.352 6.656 11.008 12.032 20.224 15.616v0.512c-8.704 2.304-15.872 7.424-22.016 15.36-7.168 8.704-10.496 18.688-10.496 29.952 0 16.384 5.888 29.44 17.92 39.68 11.776 9.984 28.672 15.104 50.688 15.104 21.76 0 38.656-5.12 50.688-15.104 11.776-10.24 17.92-23.296 17.92-39.68 0-11.264-3.584-21.248-10.496-29.952-6.144-7.936-13.568-13.056-22.016-15.36v-0.512c8.96-3.584 15.616-8.96 20.224-15.616 4.096-6.4 6.144-14.336 6.144-23.552 0-13.824-5.376-25.344-15.616-34.56-11.776-10.496-27.392-15.616-46.848-15.616z m0 23.808c10.752 0 19.2 2.816 25.856 8.704 5.632 5.12 8.448 11.264 8.448 18.688 0 8.448-2.304 15.104-6.912 19.968-5.632 5.888-14.848 8.96-27.392 8.96-12.8 0-21.76-3.072-27.392-8.96-4.608-4.864-6.912-11.52-6.912-19.968 0-7.424 2.816-13.568 8.448-18.688 6.4-5.888 15.104-8.704 25.856-8.704z m0 78.592c12.8 0 22.528 3.072 29.44 9.472 6.144 5.632 9.472 13.568 9.472 23.296 0 9.216-3.328 16.384-9.728 22.016-7.168 5.632-16.896 8.704-29.184 8.704-12.544 0-22.016-2.816-28.672-8.448-6.912-5.632-10.24-13.056-10.24-22.272 0-9.728 3.072-17.664 9.728-23.552 6.656-6.144 16.384-9.216 29.184-9.216z" fill="#FF7400" p-id="6210"></path></svg>