<svg id="图层_1" data-name="图层 1" xmlns="http://www.w3.org/2000/svg" viewBox="0 0 91 91"><defs><style>.cls-1{fill:#fafafa;}.cls-1,.cls-2{stroke:blue;}.cls-1,.cls-2,.cls-3{stroke-linejoin:round;}.cls-2{fill:blue;}.cls-2,.cls-3{stroke-width:0.3px;}.cls-3{fill:#00ffd8;stroke:#00ffd8;}</style></defs><title>s2</title><circle class="cls-1" cx="45.5" cy="45.5" r="45"/><path class="cls-2" d="M242.54,284,277,287.88l-.08.75-34.51-3.92Z" transform="translate(-210.5 -210.5)"/><polygon class="cls-2" points="39.93 17.6 24.2 46.77 23.55 46.41 39.27 17.25 39.93 17.6"/><path class="cls-2" d="M256.11,225,275,229.21l-.17.74-19-4.32Z" transform="translate(-210.5 -210.5)"/><path class="cls-2" d="M225.39,273.85q-5.52,5.72-11,11.42l.2.19,11.09-11.35Z" transform="translate(-210.5 -210.5)"/><path class="cls-2" d="M232.46,262l-2.94,7.37-.57-.23,2.85-7.41Z" transform="translate(-210.5 -210.5)"/><path class="cls-2" d="M230.56,273.94l3.58,3.29-.51.55-3.58-3.3Z" transform="translate(-210.5 -210.5)"/><circle class="cls-2" cx="2.12" cy="76.89" r="1.62"/><circle class="cls-2" cx="17.46" cy="61.56" r="1.8"/><circle class="cls-2" cx="22.51" cy="48.93" r="1.44"/><circle class="cls-2" cx="25.04" cy="68.77" r="1.08"/><circle class="cls-2" cx="28.82" cy="73.64" r="1.98"/><circle class="cls-2" cx="69.06" cy="78.15" r="1.44"/><circle class="cls-2" cx="67.25" cy="19.7" r="1.8"/><circle class="cls-3" cx="41.45" cy="14.11" r="2.71"/></svg>