<?xml version="1.0" standalone="no"?><!DOCTYPE svg PUBLIC "-//W3C//DTD SVG 1.1//EN" "http://www.w3.org/Graphics/SVG/1.1/DTD/svg11.dtd"><svg t="1746327896053" class="icon" viewBox="0 0 1024 1024" version="1.1" xmlns="http://www.w3.org/2000/svg" p-id="9938" xmlns:xlink="http://www.w3.org/1999/xlink" width="200" height="200"><path d="M64 512a448 448 0 1 0 896 0A448 448 0 0 0 64 512z" fill="#0050FF" p-id="9939"></path><path d="M708.416 261.632l-58.688 370.368c-5.76 29.696-28.992 52.928-58.688 58.688l-223.552-1.92a47.232 47.232 0 0 1-42.88-53.056s23.232-143.424 32.512-203.072c1.792-32 26.048-58.176 57.792-62.4h87.296l13.44-78.912-88.576-0.128A135.808 135.808 0 0 0 289.92 405.248l-40.768 248.32c-9.344 49.92 21.76 98.56 71.04 111.04h266.176a130.816 130.816 0 0 0 125.76-93.44l71.68-409.6H708.48z" fill="#FFFFFF" p-id="9940"></path><path d="M385.984 619.84h73.856l31.744-181.312H413.888z" fill="#99B9FF" p-id="9941"></path><path d="M593.408 620.928l39.744-255.168h-74.24l-44.416 255.168z" fill="#CCDCFF" p-id="9942"></path></svg>